<svg width="96" height="96" viewBox="0 0 96 96" fill="none" xmlns="http://www.w3.org/2000/svg">
<path d="M38 64C30.7333 64 24.584 61.4827 19.552 56.448C14.52 51.4133 12.0027 45.264 12 38C11.9973 30.736 14.5147 24.5867 19.552 19.552C24.5893 14.5173 30.7387 12 38 12C45.2613 12 51.412 14.5173 56.452 19.552C61.492 24.5867 64.008 30.736 64 38C64 40.9333 63.5333 43.7 62.6 46.3C61.6667 48.9 60.4 51.2 58.8 53.2L81.2 75.6C81.9333 76.3333 82.3 77.2667 82.3 78.4C82.3 79.5333 81.9333 80.4667 81.2 81.2C80.4667 81.9333 79.5333 82.3 78.4 82.3C77.2667 82.3 76.3333 81.9333 75.6 81.2L53.2 58.8C51.2 60.4 48.9 61.6667 46.3 62.6C43.7 63.5333 40.9333 64 38 64ZM38 56C43 56 47.2507 54.2507 50.752 50.752C54.2533 47.2533 56.0027 43.0027 56 38C55.9973 32.9973 54.248 28.748 50.752 25.252C47.256 21.756 43.0053 20.0053 38 20C32.9947 19.9947 28.7453 21.7453 25.252 25.252C21.7587 28.7587 20.008 33.008 20 38C19.992 42.992 21.7427 47.2427 25.252 50.752C28.7613 54.2613 33.0107 56.0107 38 56Z" fill="white"/>
</svg>
